<?xml version="1.0" encoding="utf-8"?>
<!-- Generator: Adobe Illustrator 25.3.1, SVG Export Plug-In . SVG Version: 6.00 Build 0)  -->
<svg version="1.1" id="Layer_1" xmlns="http://www.w3.org/2000/svg" xmlns:xlink="http://www.w3.org/1999/xlink" x="0px" y="0px"
	 viewBox="0 0 200 50" style="enable-background:new 0 0 200 50;" xml:space="preserve">
<style type="text/css">
	.st0{clip-path:url(#SVGID_2_);fill:#838587;}
	.st1{clip-path:url(#SVGID_2_);fill:#3777BB;}
	.st2{clip-path:url(#SVGID_4_);fill:url(#SVGID_5_);}
	.st3{clip-path:url(#SVGID_7_);fill:url(#SVGID_8_);}
	.st4{clip-path:url(#SVGID_10_);fill:url(#SVGID_11_);}
	.st5{clip-path:url(#SVGID_13_);fill:url(#SVGID_14_);}
	.st6{clip-path:url(#SVGID_16_);fill:url(#SVGID_17_);}
</style>
<g>
	<defs>
		<rect id="SVGID_1_" y="0.86" width="200" height="48.27"/>
	</defs>
	<clipPath id="SVGID_2_">
		<use xlink:href="#SVGID_1_"  style="overflow:visible;"/>
	</clipPath>
	<path class="st0" d="M60.65,47l-0.57-1.6H57L56.42,47h-0.54l2.43-6.61h0.45L61.19,47H60.65z M57.15,44.95h2.76l-1.38-3.89
		L57.15,44.95z M65.04,47v-2.77c0-0.86-0.43-1.34-1.23-1.34c-0.81,0-1.26,0.48-1.26,1.34V47h-0.47v-4.47h0.47v0.53
		c0.33-0.39,0.77-0.58,1.32-0.58c0.49,0,0.89,0.14,1.19,0.43c0.31,0.3,0.47,0.71,0.47,1.24V47H65.04z M69.83,47v-6.6h4.01v0.44
		h-3.51v2.61h2.99v0.44h-2.99v2.66h3.51V47H69.83z M77.56,47l-1.18-1.88L75.18,47h-0.57l1.51-2.28l-1.45-2.19h0.57l1.13,1.8
		l1.11-1.8h0.57l-1.45,2.19L78.14,47H77.56z M79.05,44.87c0,1.14,0.5,1.76,1.46,1.76c0.53,0,0.85-0.16,1.23-0.54l0.35,0.28
		c-0.46,0.46-0.87,0.69-1.61,0.69c-1.23,0-1.9-0.8-1.9-2.29c0-1.45,0.67-2.29,1.79-2.29c1.12,0,1.79,0.81,1.79,2.18v0.21H79.05z
		 M81.53,43.64c-0.19-0.47-0.64-0.75-1.16-0.75c-0.52,0-0.95,0.29-1.16,0.75c-0.12,0.27-0.13,0.42-0.16,0.84h2.63
		C81.66,44.06,81.65,43.91,81.53,43.64 M84.28,47c-0.73,0-1.08-0.45-1.08-1.16V40.4h0.47v5.44c0,0.51,0.16,0.75,0.69,0.75h0.33V47
		H84.28z M88.22,46.57c-0.33,0.32-0.74,0.49-1.24,0.49c-0.5,0-0.92-0.17-1.24-0.49c-0.47-0.47-0.56-1.16-0.56-1.8
		c0-0.64,0.08-1.33,0.56-1.8c0.32-0.32,0.74-0.49,1.24-0.49c0.5,0,0.92,0.17,1.24,0.49c0.47,0.47,0.56,1.16,0.56,1.8
		C88.77,45.41,88.69,46.09,88.22,46.57 M87.9,43.28c-0.25-0.25-0.57-0.38-0.93-0.38s-0.68,0.13-0.93,0.38
		c-0.37,0.37-0.4,0.97-0.4,1.49c0,0.52,0.03,1.12,0.4,1.49c0.25,0.25,0.57,0.38,0.93,0.38s0.68-0.13,0.93-0.38
		c0.37-0.37,0.4-0.97,0.4-1.49C88.3,44.25,88.27,43.64,87.9,43.28 M92.86,47v-2.77c0-0.86-0.43-1.33-1.23-1.33s-1.26,0.48-1.26,1.33
		V47h-0.47v-4.47h0.47v0.53c0.33-0.39,0.77-0.58,1.32-0.58c0.49,0,0.89,0.14,1.19,0.43c0.31,0.3,0.46,0.71,0.46,1.24V47H92.86z
		 M99.68,47.08c-0.66,0-1.22-0.24-1.6-0.63c-0.61-0.61-0.66-1.12-0.66-2.73s0.05-2.12,0.66-2.73c0.39-0.39,0.94-0.63,1.6-0.63
		c1.19,0,2.02,0.74,2.24,1.93h-0.51c-0.19-0.92-0.85-1.49-1.73-1.49c-0.48,0-0.91,0.17-1.25,0.51c-0.48,0.47-0.51,1.01-0.51,2.4
		c0,1.39,0.03,1.93,0.51,2.4c0.34,0.34,0.77,0.51,1.25,0.51c0.89,0,1.56-0.57,1.75-1.49h0.49C101.7,46.34,100.85,47.08,99.68,47.08
		 M106.11,46.56c-0.33,0.33-0.74,0.49-1.24,0.49c-0.5,0-0.92-0.17-1.24-0.49c-0.47-0.47-0.56-1.16-0.56-1.8s0.09-1.33,0.56-1.8
		c0.33-0.32,0.74-0.49,1.24-0.49c0.5,0,0.92,0.17,1.24,0.49c0.47,0.47,0.56,1.16,0.56,1.8S106.58,46.1,106.11,46.56 M105.8,43.27
		c-0.25-0.25-0.57-0.38-0.93-0.38c-0.36,0-0.68,0.13-0.93,0.38c-0.37,0.37-0.4,0.98-0.4,1.49c0,0.52,0.03,1.12,0.4,1.49
		c0.25,0.25,0.56,0.38,0.93,0.38c0.36,0,0.68-0.13,0.93-0.38c0.37-0.37,0.4-0.97,0.4-1.49C106.19,44.25,106.16,43.64,105.8,43.27
		 M113.81,47v-2.77c0-0.86-0.42-1.34-1.24-1.34c-0.78,0-1.26,0.48-1.26,1.25V47h-0.47v-2.77c0-0.86-0.43-1.34-1.24-1.34
		c-0.81,0-1.26,0.48-1.26,1.34V47h-0.47v-4.47h0.47v0.53c0.33-0.39,0.78-0.58,1.33-0.58c0.67,0,1.17,0.29,1.44,0.82
		c0.33-0.53,0.85-0.82,1.52-0.82c0.49,0,0.89,0.16,1.18,0.43c0.3,0.3,0.47,0.71,0.47,1.24V47H113.81z M118.54,46.67
		c-0.23,0.23-0.62,0.39-1.09,0.39c-0.51,0-0.93-0.11-1.33-0.63v2.71h-0.47v-6.61h0.47v0.58c0.4-0.52,0.82-0.63,1.33-0.63
		c0.47,0,0.86,0.16,1.09,0.39c0.46,0.45,0.58,1.2,0.58,1.9C119.11,45.47,118.99,46.21,118.54,46.67 M117.38,42.89
		c-1.1,0-1.26,0.95-1.26,1.87c0,0.93,0.17,1.87,1.26,1.87s1.26-0.95,1.26-1.87C118.64,43.84,118.47,42.89,117.38,42.89 M123.05,47
		v-0.45c-0.38,0.38-0.73,0.5-1.36,0.5c-0.67,0-1.03-0.11-1.32-0.41c-0.21-0.21-0.32-0.62-0.32-0.95c0-0.82,0.58-1.41,1.56-1.41h1.45
		v-0.3c0-0.71-0.34-1.09-1.26-1.09c-0.63,0-0.95,0.16-1.23,0.57l-0.34-0.3c0.38-0.53,0.84-0.69,1.58-0.69
		c1.19,0,1.73,0.53,1.73,1.46V47H123.05z M123.05,44.67h-1.39c-0.76,0-1.14,0.42-1.14,1.02c0,0.59,0.35,0.95,1.17,0.95
		c0.41,0,0.79-0.04,1.11-0.34c0.17-0.16,0.25-0.44,0.25-0.85V44.67z M127.86,47v-2.77c0-0.86-0.42-1.34-1.24-1.34
		c-0.81,0-1.26,0.48-1.26,1.34V47h-0.47v-4.47h0.47v0.53c0.33-0.39,0.77-0.58,1.32-0.58c0.49,0,0.89,0.14,1.18,0.43
		c0.31,0.3,0.47,0.71,0.47,1.24V47H127.86z M130.75,48.22c-0.08,0.24-0.19,0.42-0.3,0.52c-0.22,0.21-0.55,0.29-0.85,0.29h-0.22
		v-0.42h0.17c0.51,0,0.66-0.16,0.82-0.61l0.36-0.99l-1.64-4.47h0.52l1.34,3.92l1.35-3.92h0.52L130.75,48.22z"/>
	<path class="st1" d="M62.53,33.92c-2.02,0-3.58-0.67-4.78-1.87c-1.79-1.82-1.87-3.67-1.87-7.54c0-3.87,0.08-5.72,1.87-7.54
		c1.2-1.19,2.76-1.87,4.78-1.87c3.41,0,5.96,2.03,6.61,5.69h-2.86c-0.42-1.9-1.69-3.2-3.75-3.2c-1.12,0-2.05,0.41-2.72,1.14
		c-0.94,0.99-1.12,2.11-1.12,5.77c0,3.67,0.18,4.79,1.12,5.78c0.67,0.73,1.61,1.14,2.72,1.14c2.05,0,3.36-1.3,3.8-3.2h2.81
		C68.49,31.89,65.92,33.92,62.53,33.92 M80.53,32.36c-0.86,0.88-2.16,1.56-3.95,1.56c-1.79,0-3.07-0.67-3.93-1.56
		c-1.25-1.3-1.56-2.97-1.56-5.2c0-2.21,0.31-3.87,1.56-5.18c0.86-0.88,2.13-1.56,3.93-1.56c1.79,0,3.09,0.68,3.95,1.56
		c1.25,1.3,1.56,2.96,1.56,5.18C82.09,29.39,81.77,31.06,80.53,32.36 M73.74,27.16c0,1.43,0.11,2.81,0.91,3.61
		c0.5,0.5,1.14,0.78,1.92,0.78c0.78,0,1.46-0.28,1.95-0.78c0.81-0.8,0.91-2.18,0.91-3.61c0-1.43-0.1-2.81-0.91-3.62
		c-0.49-0.49-1.17-0.75-1.95-0.75c-0.78,0-1.43,0.26-1.92,0.75C73.84,24.35,73.74,25.73,73.74,27.16 M92.2,33.76v-8.03
		c0-2.05-1.17-2.94-2.65-2.94c-1.48,0-2.73,0.91-2.73,2.94v8.03h-2.65V20.58h2.6v1.33c0.91-0.99,2.19-1.48,3.51-1.48
		c1.35,0,2.47,0.44,3.25,1.2c1.01,0.99,1.33,2.24,1.33,3.72v8.42H92.2z M102.2,33.92c-2.16,0-3.98-0.36-5.54-1.9l1.74-1.74
		c1.06,1.09,2.49,1.38,3.79,1.38c1.64,0,2.89-0.57,2.89-1.82c0-0.91-0.5-1.43-1.77-1.56l-2.11-0.18c-2.49-0.23-3.9-1.32-3.9-3.64
		c0-2.6,2.21-4.03,4.97-4.03c2,0,3.66,0.42,4.89,1.48l-1.66,1.69c-0.83-0.7-2-0.96-3.25-0.96c-1.61,0-2.39,0.68-2.39,1.69
		c0,0.91,0.52,1.38,1.82,1.51l1.85,0.15c2.73,0.24,4.16,1.43,4.16,3.75C107.69,32.49,105.35,33.92,102.2,33.92 M113.99,33.76
		c-2.47,0-3.61-1.77-3.61-3.67V22.6h-1.51v-2.03h1.51v-3.77h2.65v3.77h2.55v2.03h-2.55v7.36c0,0.96,0.47,1.53,1.46,1.53h1.09v2.26
		H113.99z M119.51,27.94c0,2.29,1.17,3.69,3.36,3.69c1.48,0,2.26-0.41,3.2-1.35l1.69,1.58c-1.35,1.35-2.63,2.06-4.94,2.06
		c-3.3,0-5.93-1.74-5.93-6.76c0-4.29,2.21-6.74,5.59-6.74c3.54,0,5.59,2.55,5.59,6.4v1.12H119.51z M125.07,24.3
		c-0.44-0.99-1.35-1.66-2.6-1.66c-1.28,0-2.19,0.68-2.63,1.66c-0.26,0.57-0.31,0.99-0.34,1.8h5.93
		C125.39,25.29,125.33,24.87,125.07,24.3 M133.88,33.76c-2.52,0-3.61-1.69-3.61-3.64V15.25h2.65v14.72c0,1.01,0.36,1.53,1.43,1.53
		h1.17v2.26H133.88z M140.87,33.76c-2.53,0-3.62-1.69-3.62-3.64V15.25h2.65v14.72c0,1.01,0.37,1.53,1.43,1.53h1.17v2.26H140.87z
		 M151.88,33.76v-1.2c-0.96,0.96-1.87,1.35-3.51,1.35c-1.64,0-2.73-0.39-3.54-1.19c-0.67-0.71-1.03-1.72-1.03-2.83
		c0-2.21,1.53-3.8,4.57-3.8h3.46v-0.94c0-1.69-0.81-2.47-2.89-2.47c-1.4,0-2.13,0.36-2.89,1.3l-1.72-1.64
		c1.22-1.46,2.5-1.92,4.71-1.92c3.64,0,5.44,1.56,5.44,4.52v8.81H151.88z M151.83,27.94h-3.04c-1.62,0-2.42,0.68-2.42,1.9
		c0,1.22,0.75,1.87,2.5,1.87c0.93,0,1.69-0.11,2.39-0.76c0.41-0.39,0.57-1.01,0.57-1.95V27.94z M161.26,33.76
		c-2.47,0-3.62-1.77-3.62-3.67V22.6h-1.51v-2.03h1.51v-3.77h2.66v3.77h2.55v2.03h-2.55v7.36c0,0.96,0.47,1.53,1.45,1.53h1.09v2.26
		H161.26z M164.83,15.17h2.81v2.81h-2.81V15.17z M164.91,20.58h2.65v13.18h-2.65V20.58z M179.38,32.36
		c-0.86,0.88-2.16,1.56-3.95,1.56c-1.79,0-3.07-0.67-3.93-1.56c-1.25-1.3-1.56-2.97-1.56-5.2c0-2.21,0.31-3.87,1.56-5.18
		c0.86-0.88,2.13-1.56,3.93-1.56c1.79,0,3.1,0.68,3.95,1.56c1.25,1.3,1.56,2.96,1.56,5.18C180.94,29.39,180.63,31.06,179.38,32.36
		 M177.38,23.54c-0.5-0.49-1.17-0.75-1.95-0.75c-0.78,0-1.43,0.26-1.93,0.75c-0.8,0.81-0.91,2.19-0.91,3.62
		c0,1.43,0.1,2.81,0.91,3.61c0.5,0.5,1.14,0.78,1.93,0.78c0.78,0,1.46-0.28,1.95-0.78c0.8-0.8,0.91-2.18,0.91-3.61
		C178.29,25.73,178.19,24.35,177.38,23.54 M191.42,33.76v-8.03c0-2.05-1.17-2.94-2.65-2.94c-1.48,0-2.73,0.91-2.73,2.94v8.03h-2.65
		V20.58h2.6v1.33c0.91-0.99,2.18-1.48,3.51-1.48c1.35,0,2.47,0.44,3.25,1.2c1.01,0.99,1.33,2.24,1.33,3.72v8.42H191.42z
		 M198.35,33.95c-0.91,0-1.65-0.74-1.65-1.65c0-0.91,0.74-1.65,1.65-1.65c0.91,0,1.65,0.74,1.65,1.65
		C200,33.21,199.26,33.95,198.35,33.95 M198.35,30.85c-0.79,0-1.43,0.66-1.43,1.45c0,0.79,0.65,1.45,1.43,1.45
		c0.79,0,1.43-0.67,1.43-1.45C199.79,31.51,199.14,30.85,198.35,30.85 M198.79,33.21l-0.45-0.76h-0.3v0.76h-0.21v-1.83h0.58
		c0.3,0,0.57,0.23,0.57,0.54c0,0.27-0.17,0.44-0.41,0.51l0.46,0.78H198.79z M198.39,31.57h-0.35v0.7h0.35
		c0.22,0,0.38-0.15,0.38-0.35C198.78,31.72,198.61,31.57,198.39,31.57"/>
</g>
<g>
	<defs>
		<path id="SVGID_3_" d="M4.22,20.71c-0.16,0.08-0.29,0.15-0.48,0.25c0,0-0.71,1-1.49,2.25c-0.72,1.15-1.51,2.51-2.01,3.49
			C0.17,26.83,0,27.16,0,27.16c1.31-0.95,2.91-1.48,5.06-1.74c2.63-0.32,5.69-0.26,8.82-0.13c2.75,0.12,5.69,0.3,8.63,0.45
			c4.98,0.25,11.43-2.28,14.91-5.73c0,0-0.15,0.09-0.2,0.12c-6.48,3.75-12.35,2.93-17.61,1.98c-3.96-0.72-7.95-2.22-11.49-2.22
			C6.74,19.88,5.43,20.11,4.22,20.71"/>
	</defs>
	<clipPath id="SVGID_4_">
		<use xlink:href="#SVGID_3_"  style="overflow:visible;"/>
	</clipPath>
	
		<linearGradient id="SVGID_5_" gradientUnits="userSpaceOnUse" x1="1.0875" y1="50.9717" x2="2.0875" y2="50.9717" gradientTransform="matrix(-16.3623 -16.3623 -16.3623 16.3623 878.1175 -785.1002)">
		<stop  offset="0" style="stop-color:#BBC747"/>
		<stop  offset="1" style="stop-color:#009152"/>
	</linearGradient>
	<polygon class="st2" points="18.71,45.87 -3.64,23.52 18.71,1.17 41.06,23.52 	"/>
</g>
<g>
	<defs>
		<path id="SVGID_6_" d="M4.22,20.71c0.02-0.01,0.05-0.02,0.07-0.03C4.26,20.68,4.24,20.7,4.22,20.71 M4.29,20.67
			c4.3-2.05,9.84,0.43,15.32,1.43c5.26,0.96,11.13,1.77,17.61-1.98c0.05-0.03,0.2-0.12,0.2-0.12s-1.34,0.12-3.32,0.15
			c-1.98,0.03-6.07-0.14-8.55-0.35c-5.22-0.44-9.16-0.74-12.31-0.74C9.39,19.07,6.71,19.51,4.29,20.67"/>
	</defs>
	<clipPath id="SVGID_7_">
		<use xlink:href="#SVGID_6_"  style="overflow:visible;"/>
	</clipPath>
	
		<linearGradient id="SVGID_8_" gradientUnits="userSpaceOnUse" x1="1.0301" y1="50.9517" x2="2.0301" y2="50.9517" gradientTransform="matrix(-33.2017 0 0 33.2017 71.6201 -1670.4359)">
		<stop  offset="0" style="stop-color:#BBC747"/>
		<stop  offset="0.1907" style="stop-color:#81B64A"/>
		<stop  offset="0.3966" style="stop-color:#4AA64E"/>
		<stop  offset="0.5744" style="stop-color:#229B50"/>
		<stop  offset="0.7146" style="stop-color:#099451"/>
		<stop  offset="0.8" style="stop-color:#009152"/>
		<stop  offset="1" style="stop-color:#009152"/>
	</linearGradient>
	<rect x="4.22" y="18.62" class="st3" width="33.2" height="5.25"/>
</g>
<g>
	<defs>
		<path id="SVGID_9_" d="M47.54,2.6c-2.62,0.32-5.69,0.26-8.82,0.13c-2.75-0.12-5.69-0.3-8.63-0.45C25.1,2.03,18.66,4.56,15.18,8.02
			c0,0,0.15-0.09,0.2-0.12c6.48-3.75,12.35-2.93,17.61-1.98c5.51,1,11.08,3.51,15.4,1.39c0.17-0.08,0.29-0.15,0.48-0.25
			c0,0,0.71-1,1.49-2.25c0.72-1.15,1.51-2.51,2.01-3.49c0.07-0.13,0.24-0.46,0.24-0.46C51.28,1.81,49.68,2.34,47.54,2.6"/>
	</defs>
	<clipPath id="SVGID_10_">
		<use xlink:href="#SVGID_9_"  style="overflow:visible;"/>
	</clipPath>
	
		<linearGradient id="SVGID_11_" gradientUnits="userSpaceOnUse" x1="0.8822" y1="51.0064" x2="1.8822" y2="51.0064" gradientTransform="matrix(12.1595 12.1595 12.1595 -12.1595 -603.0588 608.6307)">
		<stop  offset="0" style="stop-color:#0A97D4"/>
		<stop  offset="1" style="stop-color:#31539B"/>
	</linearGradient>
	<polygon class="st4" points="33.88,-17.84 56.88,5.15 33.88,28.14 10.89,5.15 	"/>
</g>
<g>
	<defs>
		<path id="SVGID_12_" d="M48.31,7.35c0.02-0.01,0.05-0.02,0.07-0.03C48.35,7.33,48.33,7.34,48.31,7.35 M15.37,7.9
			c-0.05,0.03-0.2,0.12-0.2,0.12s1.34-0.12,3.32-0.15c1.98-0.03,6.07,0.14,8.55,0.35C38.64,9.2,43.91,9.46,48.31,7.35
			c-4.3,2.05-9.84-0.43-15.33-1.43c-2.28-0.42-4.68-0.8-7.2-0.8C22.51,5.12,19.04,5.78,15.37,7.9"/>
	</defs>
	<clipPath id="SVGID_13_">
		<use xlink:href="#SVGID_12_"  style="overflow:visible;"/>
	</clipPath>
	
		<linearGradient id="SVGID_14_" gradientUnits="userSpaceOnUse" x1="0.9699" y1="51.0485" x2="1.9699" y2="51.0485" gradientTransform="matrix(33.2019 0 0 -33.2019 -17.0271 1702.2001)">
		<stop  offset="0" style="stop-color:#0A97D4"/>
		<stop  offset="0.3311" style="stop-color:#1E74B7"/>
		<stop  offset="0.6211" style="stop-color:#2C5CA2"/>
		<stop  offset="0.8" style="stop-color:#31539B"/>
		<stop  offset="1" style="stop-color:#31539B"/>
	</linearGradient>
	<rect x="15.17" y="5.12" class="st5" width="33.2" height="4.34"/>
</g>
<g>
	<defs>
		<path id="SVGID_15_" d="M27.83,11.21c-5.36-0.42-10.86-0.83-15.82-0.11c-2.06,2.09-3.98,4.24-5.75,6.48
			c5.02-1.82,11.64-1.29,18.48-0.76c5.37,0.42,10.87,0.83,15.84,0.11c1.23-1.15,4.85-5.27,5.74-6.48
			C41.29,12.28,34.67,11.74,27.83,11.21"/>
	</defs>
	<clipPath id="SVGID_16_">
		<use xlink:href="#SVGID_15_"  style="overflow:visible;"/>
	</clipPath>
	
		<linearGradient id="SVGID_17_" gradientUnits="userSpaceOnUse" x1="0.8786" y1="51.0366" x2="1.8786" y2="51.0366" gradientTransform="matrix(11.7984 11.7984 11.7984 -11.7984 -591.0931 600.9303)">
		<stop  offset="0" style="stop-color:#F15E37"/>
		<stop  offset="0.2111" style="stop-color:#F26738"/>
		<stop  offset="0.5552" style="stop-color:#F57F3B"/>
		<stop  offset="0.9" style="stop-color:#F99E3F"/>
		<stop  offset="1" style="stop-color:#F99E3F"/>
	</linearGradient>
	<polygon class="st6" points="26.29,-9.65 49.95,14.01 26.29,37.68 2.62,14.01 	"/>
</g>
</svg>
