<svg width="100%" height="100%" viewBox="0 0 125 125">
    <g>
        <path d="M62.5,125C28.04,125 0,96.96 0,62.5C0,28.04 28.04,0 62.5,0C96.96,0 125,28.04 125,62.5C125,96.96 96.96,125 62.5,125ZM62.5,1C28.59,1 1,28.59 1,62.5C1,96.41 28.59,124 62.5,124C96.41,124 124,96.41 124,62.5C124,28.59 96.41,1 62.5,1ZM59.88,72.97L65.11,72.97L65.11,67.74L59.88,67.74L59.88,72.97ZM66.42,75.58L58.57,75.58C57.85,75.58 57.26,75 57.26,74.27L57.26,66.42C57.26,65.7 57.84,65.11 58.57,65.11L66.42,65.11C67.14,65.11 67.73,65.7 67.73,66.42L67.73,74.27C67.73,75 67.15,75.58 66.42,75.58M74.27,72.97L79.5,72.97L79.5,67.74L74.27,67.74L74.27,72.97ZM80.81,75.58L72.96,75.58C72.24,75.58 71.65,75 71.65,74.27L71.65,66.42C71.65,65.7 72.23,65.11 72.96,65.11L80.81,65.11C81.53,65.11 82.12,65.7 82.12,66.42L82.12,74.27C82.12,75 81.54,75.58 80.81,75.58M45.49,72.97L50.72,72.97L50.72,67.74L45.49,67.74L45.49,72.97ZM52.03,75.58L44.18,75.58C43.46,75.58 42.87,75 42.87,74.27L42.87,66.42C42.87,65.7 43.45,65.11 44.18,65.11L52.03,65.11C52.75,65.11 53.34,65.7 53.34,66.42L53.34,74.27C53.34,75 52.76,75.58 52.03,75.58M66.42,96.51C65.7,96.51 65.11,95.93 65.11,95.2L65.11,82.12L59.88,82.12L59.88,95.2C59.88,95.92 59.29,96.51 58.57,96.51C57.85,96.51 57.26,95.93 57.26,95.2L57.26,80.82C57.26,80.1 57.84,79.51 58.57,79.51L66.42,79.51C67.14,79.51 67.73,80.09 67.73,80.82L67.73,95.21C67.73,95.93 67.15,96.51 66.42,96.51M74.27,87.36L79.5,87.36L79.5,82.13L74.27,82.13L74.27,87.36ZM80.81,89.97L72.96,89.97C72.24,89.97 71.65,89.38 71.65,88.66L71.65,80.81C71.65,80.09 72.23,79.5 72.96,79.5L80.81,79.5C81.53,79.5 82.12,80.09 82.12,80.81L82.12,88.66C82.12,89.39 81.54,89.97 80.81,89.97M45.49,87.36L50.72,87.36L50.72,82.13L45.49,82.13L45.49,87.36ZM52.03,89.97L44.18,89.97C43.46,89.97 42.87,89.38 42.87,88.66L42.87,80.81C42.87,80.09 43.45,79.5 44.18,79.5L52.03,79.5C52.75,79.5 53.34,80.09 53.34,80.81L53.34,88.66C53.34,89.39 52.76,89.97 52.03,89.97M59.88,58.58L65.11,58.58L65.11,53.35L59.88,53.35L59.88,58.58ZM66.42,61.19L58.57,61.19C57.85,61.19 57.26,60.61 57.26,59.88L57.26,52.03C57.26,51.31 57.84,50.72 58.57,50.72L66.42,50.72C67.14,50.72 67.73,51.31 67.73,52.03L67.73,59.88C67.73,60.61 67.15,61.19 66.42,61.19M74.27,58.58L79.5,58.58L79.5,53.35L74.27,53.35L74.27,58.58ZM80.81,61.19L72.96,61.19C72.24,61.19 71.65,60.61 71.65,59.88L71.65,52.03C71.65,51.31 72.23,50.72 72.96,50.72L80.81,50.72C81.53,50.72 82.12,51.31 82.12,52.03L82.12,59.88C82.12,60.61 81.54,61.19 80.81,61.19M45.49,58.58L50.72,58.58L50.72,53.35L45.49,53.35L45.49,58.58ZM52.03,61.19L44.18,61.19C43.46,61.19 42.87,60.61 42.87,59.88L42.87,52.03C42.87,51.31 43.45,50.72 44.18,50.72L52.03,50.72C52.75,50.72 53.34,51.31 53.34,52.03L53.34,59.88C53.34,60.61 52.76,61.19 52.03,61.19M59.88,44.19L65.11,44.19L65.11,38.96L59.88,38.96L59.88,44.19ZM66.42,46.8L58.57,46.8C57.85,46.8 57.26,46.22 57.26,45.49L57.26,37.64C57.26,36.92 57.84,36.33 58.57,36.33L66.42,36.33C67.14,36.33 67.73,36.91 67.73,37.64L67.73,45.49C67.73,46.22 67.15,46.8 66.42,46.8M74.27,44.19L79.5,44.19L79.5,38.96L74.27,38.96L74.27,44.19ZM80.81,46.8L72.96,46.8C72.24,46.8 71.65,46.22 71.65,45.49L71.65,37.64C71.65,36.92 72.23,36.33 72.96,36.33L80.81,36.33C81.53,36.33 82.12,36.91 82.12,37.64L82.12,45.49C82.12,46.22 81.54,46.8 80.81,46.8M45.49,44.19L50.72,44.19L50.72,38.96L45.49,38.96L45.49,44.19ZM52.03,46.8L44.18,46.8C43.46,46.8 42.87,46.22 42.87,45.49L42.87,37.64C42.87,36.92 43.45,36.33 44.18,36.33L52.03,36.33C52.75,36.33 53.34,36.91 53.34,37.64L53.34,45.49C53.34,46.22 52.76,46.8 52.03,46.8M97.82,96.51L27.18,96.51C26.46,96.51 25.87,95.93 25.87,95.2C25.87,94.47 26.45,93.89 27.18,93.89L97.82,93.89C98.54,93.89 99.13,94.47 99.13,95.2C99.13,95.93 98.54,96.51 97.82,96.51M88.66,96.51C87.94,96.51 87.35,95.93 87.35,95.2L87.35,31.1L37.64,31.1L37.64,95.2C37.64,95.92 37.05,96.51 36.33,96.51C35.61,96.51 35.02,95.93 35.02,95.2L35.02,29.79C35.02,29.07 35.61,28.48 36.33,28.48L88.66,28.48C89.38,28.48 89.97,29.06 89.97,29.79L89.97,95.2C89.97,95.93 89.39,96.51 88.66,96.51" />
    </g>
</svg>
