<svg width="100%" height="100%" viewBox="0 0 125 125">
    <path d="M62.5,125C28.04,125 0,96.96 0,62.5C0,28.04 28.04,0 62.5,0C96.96,0 125,28.04 125,62.5C125,96.96 96.96,125 62.5,125ZM62.5,1C28.59,1 1,28.59 1,62.5C1,96.41 28.59,124 62.5,124C96.41,124 124,96.41 124,62.5C124,28.59 96.41,1 62.5,1ZM65.82,29.41L56.53,29.41C55.7,29.41 55.03,28.74 55.03,27.91L55.03,19.03C55.03,13.8 59.28,9.55 64.51,9.55L74.46,9.55C75.29,9.55 75.96,10.22 75.96,11.05C75.96,11.88 75.29,12.55 74.46,12.55L64.51,12.55C60.94,12.55 58.03,15.46 58.03,19.03L58.03,26.41L64.32,26.41L64.32,20.73C64.32,19.2 65.56,17.96 67.09,17.96L74.46,17.96C75.29,17.96 75.96,18.63 75.96,19.46C75.96,20.29 75.29,20.96 74.46,20.96L67.32,20.96L67.32,27.91C67.32,28.74 66.65,29.41 65.82,29.41ZM46.43,105.75L39.05,105.75C38.22,105.75 37.55,105.08 37.55,104.25L37.55,29.24C37.55,28.46 38.14,27.82 38.91,27.75C55.59,26.22 71.91,26.22 86.11,27.75C86.87,27.83 87.45,28.48 87.45,29.24L87.45,104.25C87.45,105.08 86.78,105.75 85.95,105.75L80.21,105.75L80.21,109.94L77.08,109.94L77.08,105.75L73.49,105.75L73.49,109.94L70.36,109.94L70.36,105.75L56.28,105.75L56.28,109.94L53.15,109.94L53.15,105.75L49.56,105.75L49.56,109.94L46.43,109.94L46.43,105.75ZM40.55,102.75L84.45,102.75L84.45,30.59C71.15,29.26 56.03,29.27 40.55,30.61L40.55,102.75ZM53.8,101.71C51.45,101.71 49.54,99.8 49.54,97.45C49.54,95.1 51.45,93.19 53.8,93.19C56.15,93.19 58.06,95.1 58.06,97.45C58.06,99.8 56.15,101.71 53.8,101.71ZM53.8,96.19C53.11,96.19 52.54,96.75 52.54,97.45C52.54,98.15 53.1,98.71 53.8,98.71C54.5,98.71 55.06,98.15 55.06,97.45C55.06,96.75 54.49,96.19 53.8,96.19ZM70.63,101.71C68.28,101.71 66.37,99.8 66.37,97.45C66.37,95.1 68.28,93.19 70.63,93.19C72.98,93.19 74.89,95.1 74.89,97.45C74.89,99.8 72.98,101.71 70.63,101.71ZM70.63,96.19C69.94,96.19 69.37,96.75 69.37,97.45C69.37,98.15 69.93,98.71 70.63,98.71C71.33,98.71 71.89,98.15 71.89,97.45C71.89,96.75 71.33,96.19 70.63,96.19ZM39.05,79.85C54.71,76.21 70.85,76.39 85.95,79.85M39.05,81.35C38.37,81.35 37.75,80.88 37.59,80.19C37.4,79.38 37.9,78.58 38.71,78.39C54.17,74.8 70.63,74.8 86.29,78.39C87.1,78.58 87.6,79.38 87.42,80.19C87.24,81 86.43,81.51 85.62,81.32C70.4,77.83 54.41,77.83 39.39,81.32C39.27,81.33 39.16,81.35 39.05,81.35ZM62.5,94.14C58.44,94.14 55.14,90.84 55.14,86.78C55.14,82.72 58.44,79.42 62.5,79.42C66.56,79.42 69.86,82.72 69.86,86.78C69.86,90.84 66.56,94.14 62.5,94.14ZM62.5,82.43C60.1,82.43 58.14,84.39 58.14,86.79C58.14,89.19 60.1,91.15 62.5,91.15C64.9,91.15 66.86,89.19 66.86,86.79C66.86,84.39 64.9,82.43 62.5,82.43ZM74.81,81.43L71.68,81.43L71.68,84.43L74.81,84.43L74.81,81.43ZM74.81,85.4L71.68,85.4L71.68,88.4L74.81,88.4L74.81,85.4ZM74.81,89.38L71.68,89.38L71.68,92.38L74.81,92.38L74.81,89.38ZM52.92,81.43L49.79,81.43L49.79,84.43L52.92,84.43L52.92,81.43ZM52.92,85.4L49.79,85.4L49.79,88.4L52.92,88.4L52.92,85.4ZM52.92,89.38L49.79,89.38L49.79,92.38L52.92,92.38L52.92,89.38Z" />
</svg>
