<svg width="100%" height="100%" viewBox="0 0 125 125">
    <g>
        <path d="M62.5,0C28.005,0 0,28.005 0,62.5C0,96.995 28.005,125 62.5,125C96.995,125 125,96.995 125,62.5C125,28.005 96.995,0 62.5,0ZM62.5,1C96.443,1 124,28.557 124,62.5C124,96.443 96.443,124 62.5,124C28.557,124 1,96.443 1,62.5C1,28.557 28.557,1 62.5,1ZM28.6,35.53C28.01,35.53 27.53,36.01 27.53,36.6L27.53,87.43C27.53,88.02 28.01,88.5 28.6,88.5L96.4,88.5C96.99,88.5 97.47,88.02 97.47,87.43L97.47,36.6C97.47,36.01 96.99,35.53 96.4,35.53L28.6,35.53ZM96.4,91.81L28.6,91.81C26.18,91.81 24.22,89.84 24.22,87.43L24.22,36.6C24.22,34.18 26.19,32.21 28.6,32.21L96.4,32.21C98.82,32.21 100.78,34.18 100.78,36.6L100.78,87.43C100.79,89.85 98.82,91.81 96.4,91.81M34.14,81.88L72.55,81.88L72.55,42.15L34.14,42.15L34.14,81.88ZM75.86,85.19L30.83,85.19L30.83,38.84L75.86,38.84L75.86,85.19ZM53.35,49.43C46.41,49.43 40.77,55.07 40.77,62.01C40.77,68.95 46.42,74.59 53.35,74.59C60.29,74.59 65.93,68.95 65.93,62.01C65.93,55.08 60.29,49.43 53.35,49.43M53.35,77.91C44.59,77.91 37.45,70.78 37.45,62.02C37.45,53.26 44.58,46.12 53.35,46.12C62.11,46.12 69.24,53.25 69.24,62.02C69.24,70.78 62.11,77.91 53.35,77.91M94.31,52.08L79.15,52.08L79.15,55.39L94.31,55.39L94.31,52.08ZM94.31,58.71L79.15,58.71L79.15,62.02L94.31,62.02L94.31,58.71ZM94.31,65.33L79.15,65.33L79.15,68.64L94.31,68.64L94.31,65.33ZM94.31,71.95L79.15,71.95L79.15,75.26L94.31,75.26L94.31,71.95ZM40.9,90.16L37.59,90.16L37.59,96.78L40.9,96.78L40.9,90.16ZM87.41,90.16L84.1,90.16L84.1,96.78L87.41,96.78L87.41,90.16ZM56.13,55.69L55.34,60.14C56.79,59.62 57.8,58.19 58.33,57.26C57.71,56.59 56.96,56.06 56.13,55.69M54.29,63.65C53.9,63.65 53.49,63.61 53.06,63.54C52.63,63.47 52.24,63.22 51.99,62.86C51.74,62.5 51.64,62.05 51.72,61.62L53.19,53.28C53.27,52.85 53.51,52.46 53.87,52.21C54.23,51.96 54.67,51.87 55.11,51.94C57.77,52.41 60.09,53.89 61.64,56.1C61.96,56.56 62.03,57.16 61.82,57.67C61.71,57.94 59.33,63.65 54.29,63.65M53.79,64.67C53.4,66.14 53.98,67.8 54.43,68.76C55.34,68.63 56.2,68.33 56.98,67.86L53.79,64.67ZM53.47,72.14C52.91,72.14 52.39,71.85 52.08,71.38C51.92,71.13 48.08,65.07 52.3,60.84C52.61,60.53 53.03,60.35 53.47,60.35C53.91,60.35 54.33,60.53 54.64,60.84L60.63,66.83C61.28,67.48 61.28,68.52 60.63,69.17C58.72,71.09 56.18,72.14 53.47,72.14M47.32,59.52C46.92,60.35 46.7,61.24 46.66,62.15L51.09,61.24C50.08,60.09 48.37,59.67 47.32,59.52M45.17,65.8C44.4,65.8 43.71,65.26 43.55,64.48C43.01,61.83 43.53,59.13 45.02,56.87C45.33,56.4 45.92,56.06 46.42,56.13C46.72,56.13 53.9,56.26 55.1,62.12C55.19,62.55 55.1,63 54.86,63.37C54.62,63.73 54.24,63.99 53.81,64.08L45.51,65.78C45.4,65.79 45.28,65.8 45.17,65.8" />
    </g>
</svg>
