<svg width="100%" height="100%" viewBox="0 0 125 125">
    <g>
        <path d="M62.5,125C28.04,125 0,96.96 0,62.5C0,28.04 28.04,0 62.5,0C96.96,0 125,28.04 125,62.5C125,96.96 96.96,125 62.5,125ZM62.5,1C28.59,1 1,28.59 1,62.5C1,96.41 28.59,124 62.5,124C96.41,124 124,96.41 124,62.5C124,28.59 96.41,1 62.5,1ZM84.75,31.08L82.13,31.08L82.13,25.84L84.75,25.84L84.75,31.08ZM42.86,31.08L40.24,31.08L40.24,25.84L42.86,25.84L42.86,31.08ZM82.13,93.92L84.75,93.92L84.75,99.16L82.13,99.16L82.13,93.92ZM40.25,93.92L42.87,93.92L42.87,99.16L40.25,99.16L40.25,93.92ZM66.43,82.14L69.05,82.14L69.05,86.07L66.43,86.07L66.43,82.14ZM61.19,82.14L63.81,82.14L63.81,86.07L61.19,86.07L61.19,82.14ZM55.95,82.14L58.57,82.14L58.57,86.07L55.95,86.07L55.95,82.14ZM52.03,74.28L74.28,74.28L74.28,76.9L52.03,76.9L52.03,74.28ZM49.41,79.52L76.9,79.52L76.9,71.67L49.41,71.67L49.41,79.52ZM65.12,41.56L59.88,41.56L59.88,38.94L65.12,38.94L65.12,41.56ZM76.9,48.1L48.1,48.1L48.1,45.48L76.9,45.48L76.9,48.1ZM41.56,66.43L83.45,66.43L83.45,69.05L41.56,69.05L41.56,66.43ZM44.17,53.34L49.41,53.34L49.41,61.19L44.17,61.19L44.17,53.34ZM52.03,53.34L57.27,53.34L57.27,61.19L52.03,61.19L52.03,53.34ZM59.88,53.34L65.12,53.34L65.12,61.19L59.88,61.19L59.88,53.34ZM67.74,53.34L72.98,53.34L72.98,61.19L67.74,61.19L67.74,53.34ZM80.83,61.19L75.59,61.19L75.59,53.34L80.83,53.34L80.83,61.19ZM83.44,50.72L41.54,50.72L41.54,63.81L83.44,63.81L83.44,50.72ZM62.5,88.68C50.91,88.68 41.07,81.11 37.63,70.66C36.78,68.09 36.32,65.35 36.32,62.5C36.32,59.65 36.78,56.91 37.63,54.34C41.07,43.89 50.91,36.32 62.5,36.32C74.09,36.32 83.93,43.89 87.37,54.34C88.22,56.91 88.68,59.65 88.68,62.5C88.68,65.35 88.22,68.09 87.37,70.66C83.93,81.11 74.09,88.68 62.5,88.68M91.3,62.5C91.3,59.51 90.84,56.62 89.99,53.91C89.63,52.75 89.18,51.62 88.68,50.53C88.28,49.67 87.85,48.83 87.37,48.01C82.37,39.46 73.1,33.7 62.5,33.7C51.9,33.7 42.63,39.46 37.63,48.01C37.15,48.82 36.72,49.66 36.32,50.53C35.82,51.62 35.38,52.75 35.01,53.91C34.16,56.62 33.7,59.51 33.7,62.5C33.7,65.49 34.16,68.38 35.01,71.09C35.37,72.25 35.82,73.38 36.32,74.47C36.72,75.33 37.15,76.17 37.63,76.99C42.63,85.54 51.9,91.3 62.5,91.3C73.1,91.3 82.37,85.54 87.37,76.99C87.85,76.18 88.28,75.34 88.68,74.47C89.18,73.38 89.62,72.25 89.99,71.09C90.84,68.38 91.3,65.49 91.3,62.5M37.63,24.54C37.63,23.82 38.22,23.23 38.94,23.23L86.06,23.23C86.78,23.23 87.37,23.82 87.37,24.54L87.37,39.3C81.15,32.64 72.31,28.46 62.5,28.46C52.69,28.46 43.85,32.64 37.63,39.3L37.63,24.54ZM87.37,81.66C81.62,89.1 72.61,93.91 62.5,93.91C52.39,93.91 43.38,89.1 37.63,81.66C37.17,81.07 36.74,80.46 36.32,79.84C35.86,79.14 35.42,78.42 35.01,77.69C32.51,73.19 31.08,68.01 31.08,62.5C31.08,56.99 32.51,51.82 35.01,47.31C35.42,46.57 35.86,45.86 36.32,45.16C36.73,44.54 37.17,43.93 37.63,43.34C43.38,35.89 52.39,31.09 62.5,31.09C72.61,31.09 81.62,35.9 87.37,43.34C87.83,43.93 88.26,44.54 88.68,45.16C89.14,45.86 89.58,46.57 89.99,47.31C92.49,51.81 93.92,56.99 93.92,62.5C93.92,68.01 92.49,73.18 89.99,77.69C89.58,78.43 89.14,79.14 88.68,79.84C88.27,80.46 87.83,81.07 87.37,81.66M87.37,100.46C87.37,101.18 86.78,101.77 86.06,101.77L38.94,101.77C38.22,101.77 37.63,101.18 37.63,100.46L37.63,85.7C43.85,92.36 52.69,96.54 62.5,96.54C72.31,96.54 81.15,92.37 87.37,85.7L87.37,100.46ZM89.99,42.47L89.99,24.54C89.99,22.37 88.23,20.61 86.06,20.61L38.94,20.61C36.77,20.61 35.01,22.37 35.01,24.54L35.01,42.47C30.9,48.1 28.47,55.02 28.47,62.5C28.47,69.98 30.9,76.91 35.01,82.53L35.01,100.46C35.01,102.63 36.77,104.39 38.94,104.39L86.06,104.39C88.23,104.39 89.99,102.63 89.99,100.46L89.99,82.53C94.1,76.9 96.53,69.98 96.53,62.5C96.53,55.02 94.1,48.09 89.99,42.47" />
    </g>
</svg>
