<svg width="100%" height="100%" viewBox="0 0 125 125">
    <g>
        <path d="M62.5,125C28.04,125 0,96.96 0,62.5C0,28.04 28.04,0 62.5,0C96.96,0 125,28.04 125,62.5C125,96.96 96.96,125 62.5,125ZM62.5,1C28.59,1 1,28.59 1,62.5C1,96.41 28.59,124 62.5,124C96.41,124 124,96.41 124,62.5C124,28.59 96.41,1 62.5,1ZM103.1,62C102.71,62 102.33,61.85 102.04,61.56L83.99,43.52C83.4,42.93 83.4,41.98 83.99,41.39C84.58,40.8 85.53,40.8 86.12,41.39L104.16,59.43C104.75,60.02 104.75,60.97 104.16,61.56C103.87,61.86 103.48,62 103.1,62M67.01,62L21.9,62C21.29,62 20.74,61.63 20.51,61.07C20.28,60.51 20.41,59.86 20.84,59.43L34.37,45.9C34.96,45.31 35.91,45.31 36.5,45.9C37.09,46.49 37.09,47.44 36.5,48.03L25.53,59L66.38,59L81.42,43.96L50.47,43.96C49.64,43.96 48.97,43.29 48.97,42.46C48.97,41.63 49.64,40.96 50.47,40.96L85.05,40.96C85.66,40.96 86.21,41.32 86.44,41.89C86.67,42.45 86.54,43.1 86.11,43.53L68.07,61.56C67.79,61.84 67.41,62 67.01,62M36.94,49.98L42.95,49.98L42.95,33.44L36.94,33.44L36.94,49.98ZM44.46,52.98L35.44,52.98C34.61,52.98 33.94,52.31 33.94,51.48L33.94,31.93C33.94,31.1 34.61,30.43 35.44,30.43L44.46,30.43C45.29,30.43 45.96,31.1 45.96,31.93L45.96,51.48C45.96,52.31 45.29,52.98 44.46,52.98M44.46,52.98C44.07,52.98 43.69,52.83 43.4,52.54C42.81,51.95 42.81,51 43.4,50.41L48.97,44.84L48.97,33.44L44.46,33.44C43.63,33.44 42.96,32.77 42.96,31.94C42.96,31.11 43.63,30.44 44.46,30.44L50.47,30.44C51.3,30.44 51.97,31.11 51.97,31.94L51.97,45.47C51.97,45.87 51.81,46.25 51.53,46.53L45.52,52.54C45.23,52.84 44.84,52.98 44.46,52.98M98.59,90.57L71.52,90.57C70.69,90.57 70.02,89.9 70.02,89.07L70.02,55.99C70.02,55.16 70.69,54.49 71.52,54.49C72.35,54.49 73.02,55.16 73.02,55.99L73.02,87.57L97.08,87.57L97.08,55.99C97.08,55.16 97.75,54.49 98.58,54.49C99.41,54.49 100.08,55.16 100.08,55.99L100.08,89.07C100.09,89.9 99.42,90.57 98.59,90.57M71.52,90.57L26.41,90.57C25.58,90.57 24.91,89.9 24.91,89.07L24.91,60.5C24.91,59.67 25.58,59 26.41,59C27.24,59 27.91,59.67 27.91,60.5L27.91,87.56L71.51,87.56C72.34,87.56 73.01,88.23 73.01,89.06C73.03,89.9 72.35,90.57 71.52,90.57M82.05,65.01L88.06,65.01L88.06,59L82.05,59L82.05,65.01ZM89.56,68.02L80.54,68.02C79.71,68.02 79.04,67.35 79.04,66.52L79.04,57.5C79.04,56.67 79.71,56 80.54,56L89.56,56C90.39,56 91.06,56.67 91.06,57.5L91.06,66.52C91.07,67.35 90.39,68.02 89.56,68.02M82.05,80.05L88.06,80.05L88.06,74.04L82.05,74.04L82.05,80.05ZM89.56,83.05L80.54,83.05C79.71,83.05 79.04,82.38 79.04,81.55L79.04,72.53C79.04,71.7 79.71,71.03 80.54,71.03L89.56,71.03C90.39,71.03 91.06,71.7 91.06,72.53L91.06,81.55C91.07,82.38 90.39,83.05 89.56,83.05M62.62,90.57C61.79,90.57 61.12,89.9 61.12,89.07L61.12,74.03L55.1,74.03L55.1,89.07C55.1,89.9 54.43,90.57 53.6,90.57C52.77,90.57 52.1,89.9 52.1,89.07L52.1,72.53C52.1,71.7 52.77,71.03 53.6,71.03L62.62,71.03C63.45,71.03 64.12,71.7 64.12,72.53L64.12,89.07C64.12,89.9 63.45,90.57 62.62,90.57M37.19,80.05L43.2,80.05L43.2,74.04L37.19,74.04L37.19,80.05ZM44.71,83.05L35.69,83.05C34.86,83.05 34.19,82.38 34.19,81.55L34.19,72.53C34.19,71.7 34.86,71.03 35.69,71.03L44.71,71.03C45.54,71.03 46.21,71.7 46.21,72.53L46.21,81.55C46.22,82.38 45.54,83.05 44.71,83.05" />
    </g>
</svg>
