<svg width="100%" height="100%" viewBox="0 0 125 125">
    <g>
        <path d="M62.5,125C28.04,125 0,96.96 0,62.5C0,28.04 28.04,0 62.5,0C96.96,0 125,28.04 125,62.5C125,96.96 96.96,125 62.5,125ZM62.5,1C28.59,1 1,28.59 1,62.5C1,96.41 28.59,124 62.5,124C96.41,124 124,96.41 124,62.5C124,28.59 96.41,1 62.5,1ZM35.25,59.75L25.4,59.75C24.88,59.75 24.4,59.46 24.17,58.99C23.94,58.52 23.99,57.97 24.3,57.55L40.79,35.56C41.05,35.21 41.46,35.01 41.89,35.01L52.88,35.01C53.64,35.01 54.25,35.62 54.25,36.38C54.25,37.14 53.64,37.75 52.88,37.75L42.58,37.75L28.15,57L35.25,57C36.01,57 36.62,57.61 36.62,58.37C36.63,59.14 36.01,59.75 35.25,59.75M66.62,59.75L48.52,59.75C47.76,59.75 47.15,59.14 47.15,58.38C47.15,57.62 47.76,57.01 48.52,57.01L66.62,57.01C67.38,57.01 67.99,57.62 67.99,58.38C68,59.14 67.38,59.75 66.62,59.75M68,87.23L98.23,87.23L98.23,58.83L83.11,38.68L68,58.84L68,87.23ZM99.6,89.98L66.62,89.98C65.86,89.98 65.25,89.37 65.25,88.61L65.25,58.38C65.25,58.08 65.35,57.79 65.53,57.56L82.02,35.57C82.54,34.88 83.7,34.88 84.22,35.57L100.71,57.56C100.89,57.8 100.98,58.09 100.98,58.38L100.98,88.61C100.98,89.37 100.36,89.98 99.6,89.98M83.11,37.77L68,37.77C67.24,37.77 66.63,37.16 66.63,36.4C66.63,35.64 67.24,35.03 68,35.03L83.12,35.03C83.88,35.03 84.49,35.64 84.49,36.4C84.49,37.15 83.87,37.77 83.11,37.77M66.62,89.98L46.52,89.98C45.76,89.98 45.15,89.37 45.15,88.61C45.15,87.85 45.77,87.24 46.52,87.24L66.62,87.24C67.38,87.24 67.99,87.85 67.99,88.61C68,89.37 67.38,89.98 66.62,89.98M37.26,89.98L25.4,89.98C24.64,89.98 24.02,89.37 24.02,88.61L24.02,58.38C24.02,57.62 24.64,57.01 25.4,57.01C26.16,57.01 26.77,57.62 26.77,58.38L26.77,87.24L37.25,87.24C38.01,87.24 38.62,87.85 38.62,88.61C38.63,89.37 38.02,89.98 37.26,89.98M68,40.51L68.01,40.51L68,40.51ZM54.25,47.39L60.48,47.39L66.62,40.02L66.62,30.9L54.25,30.9L54.25,47.39ZM61.13,50.13L52.88,50.13C52.12,50.13 51.51,49.52 51.51,48.76L51.51,29.52C51.51,28.76 52.13,28.15 52.88,28.15L68,28.15C68.76,28.15 69.37,28.77 69.37,29.52L69.37,40.51C69.37,40.83 69.26,41.14 69.05,41.39L62.18,49.63C61.92,49.95 61.53,50.13 61.13,50.13M61.13,50.13C60.37,50.13 59.76,49.52 59.76,48.76L59.76,29.52C59.76,28.76 60.37,28.15 61.13,28.15C61.89,28.15 62.5,28.77 62.5,29.52L62.5,48.76C62.5,49.52 61.88,50.13 61.13,50.13M88.61,89.98C87.85,89.98 87.24,89.37 87.24,88.61L87.24,70.74L78.99,70.74L78.99,88.6C78.99,89.36 78.38,89.97 77.62,89.97C76.86,89.97 76.25,89.36 76.25,88.6L76.25,69.37C76.25,68.61 76.86,68 77.62,68L88.61,68C89.37,68 89.98,68.62 89.98,69.37L89.98,88.61C89.98,89.37 89.37,89.98 88.61,89.98M61.13,81.74L51.46,81.74C50.7,81.74 50.09,81.13 50.09,80.37C50.09,79.61 50.7,79 51.46,79L59.76,79L59.76,70.76L50.87,70.76C50.11,70.76 49.5,70.14 49.5,69.39C49.5,68.63 50.12,68.02 50.87,68.02L61.14,68.02C61.9,68.02 62.51,68.63 62.51,69.39L62.51,80.38C62.5,81.12 61.88,81.74 61.13,81.74M78.99,61.13L87.24,61.13L87.24,55.63L78.99,55.63L78.99,61.13ZM88.61,63.87L77.62,63.87C76.86,63.87 76.25,63.26 76.25,62.5L76.25,54.26C76.25,53.5 76.86,52.89 77.62,52.89L88.61,52.89C89.37,52.89 89.98,53.5 89.98,54.26L89.98,62.5C89.98,63.26 89.37,63.87 88.61,63.87M35.25,58.38L35.26,58.38L35.25,58.38ZM41.89,51.51C40.02,51.51 38.07,54.17 36.56,58.81C34.41,65.37 33.65,73.78 33.65,78.99C33.65,83.88 35.99,86.27 37.96,87.42C39.81,88.52 41.44,88.61 41.9,88.61C42.36,88.61 43.99,88.52 45.83,87.43C47.58,86.42 49.73,84.35 50.1,80.24C50.14,79.84 50.15,79.42 50.15,78.99C50.15,76.01 49.93,72.74 49.51,69.55C48.99,65.46 48.2,61.74 47.23,58.81C45.7,54.17 43.76,51.51 41.89,51.51M41.89,91.36C40.17,91.36 38.23,90.79 36.56,89.79C34.45,88.56 30.9,85.51 30.9,78.99C30.9,73.57 31.7,64.81 33.95,57.95C35.94,51.85 38.61,48.76 41.89,48.76C45.17,48.76 47.84,51.85 49.83,57.95C50.85,61.04 51.68,64.93 52.22,69.2C52.65,72.5 52.88,75.89 52.88,78.99C52.88,79.52 52.86,80.01 52.82,80.49C52.45,84.61 50.46,87.91 47.21,89.8C45.55,90.78 43.61,91.36 41.89,91.36M41.89,96.85C41.13,96.85 40.52,96.24 40.52,95.48L40.52,76.24C40.52,75.48 41.13,74.87 41.89,74.87C42.65,74.87 43.26,75.48 43.26,76.24L43.26,95.48C43.26,96.24 42.65,96.85 41.89,96.85" />
    </g>
</svg>
