<svg width="100%" height="100%" viewBox="0 0 125 125">
    <g>
        <path d="M62.5,125C28.04,125 0,96.96 0,62.5C0,28.04 28.04,0 62.5,0C96.96,0 125,28.04 125,62.5C125,96.96 96.96,125 62.5,125ZM62.5,1C28.59,1 1,28.59 1,62.5C1,96.41 28.59,124 62.5,124C96.41,124 124,96.41 124,62.5C124,28.59 96.41,1 62.5,1ZM76.2,83.91C75.31,83.91 74.48,83.56 73.85,82.93L62.5,71.59L51.15,82.93C49.89,84.19 47.7,84.19 46.44,82.93L42.06,78.55C41.43,77.92 41.08,77.09 41.08,76.2C41.08,75.31 41.43,74.48 42.06,73.85L53.41,62.5L42.06,51.15C41.43,50.52 41.08,49.68 41.08,48.8C41.08,47.91 41.43,47.07 42.06,46.45L46.44,42.07C47.7,40.81 49.89,40.81 51.15,42.07L62.5,53.41L73.85,42.06C75.11,40.8 77.3,40.8 78.56,42.06L82.94,46.44C83.57,47.07 83.92,47.9 83.92,48.79C83.92,49.68 83.57,50.51 82.94,51.14L71.59,62.5L82.94,73.85C83.57,74.48 83.92,75.32 83.92,76.2C83.92,77.09 83.57,77.93 82.94,78.55L78.56,82.93C77.93,83.56 77.09,83.91 76.2,83.91ZM62.5,68.76L75.26,81.52C75.76,82.02 76.64,82.02 77.14,81.52L81.52,77.14C81.77,76.89 81.91,76.56 81.91,76.2C81.91,75.85 81.77,75.51 81.52,75.26L68.76,62.5L81.52,49.74C81.77,49.49 81.91,49.16 81.91,48.8C81.91,48.44 81.77,48.11 81.52,47.86L77.14,43.48C76.64,42.98 75.76,42.98 75.26,43.48L62.5,56.24L49.74,43.48C49.24,42.98 48.36,42.98 47.86,43.48L43.48,47.86C43.23,48.11 43.09,48.45 43.09,48.8C43.09,49.15 43.23,49.49 43.48,49.74L56.24,62.5L43.48,75.26C43.23,75.51 43.09,75.85 43.09,76.2C43.09,76.56 43.23,76.89 43.48,77.14L47.86,81.52C48.36,82.02 49.24,82.02 49.74,81.52L62.5,68.76Z" />
    </g>
</svg>
