<svg width="100%" height="100%" viewBox="0 0 125 125">
    <g>
        <path d="M62.5,125C28.04,125 0,96.96 0,62.5C0,28.04 28.04,0 62.5,0C96.96,0 125,28.04 125,62.5C125,96.96 96.96,125 62.5,125ZM62.5,1C28.59,1 1,28.59 1,62.5C1,96.41 28.59,124 62.5,124C96.41,124 124,96.41 124,62.5C124,28.59 96.41,1 62.5,1ZM62.37,102.72C60.86,102.72 47.66,102.57 47.66,97.47L47.66,27.53C47.66,22.42 60.87,22.27 62.37,22.27C63.87,22.27 77.08,22.42 77.08,27.53L77.08,97.46C77.08,102.57 63.87,102.72 62.37,102.72ZM50.81,97.33C51.48,98.16 55.74,99.57 62.37,99.57C69,99.57 73.26,98.17 73.93,97.33L73.93,48.01C69.92,49.7 63.4,49.76 62.37,49.76C61.34,49.76 54.82,49.69 50.81,48.01L50.81,97.33ZM50.81,44.37C51.48,45.2 55.74,46.61 62.37,46.61C69,46.61 73.26,45.21 73.93,44.37L73.93,31.03C69.92,32.72 63.4,32.78 62.37,32.78C61.34,32.78 54.82,32.71 50.81,31.03L50.81,44.37ZM50.94,27.53C51.93,28.37 56.08,29.63 62.37,29.63C68.65,29.63 72.81,28.37 73.8,27.53C72.81,26.69 68.66,25.43 62.37,25.43C56.08,25.43 51.93,26.69 50.94,27.53ZM94.69,98.8L92.46,96.57C98.14,90.89 101.27,83.34 101.27,75.31C101.27,67.28 98.14,59.73 92.46,54.05L94.69,51.82C100.96,58.1 104.42,66.44 104.42,75.31C104.43,84.19 100.97,92.53 94.69,98.8ZM30.31,98.8C24.04,92.53 20.58,84.18 20.58,75.31C20.58,66.43 24.04,58.09 30.31,51.82L32.54,54.05C26.86,59.73 23.73,67.28 23.73,75.31C23.73,83.34 26.86,90.89 32.54,96.57L30.31,98.8ZM64.08,95L60.93,95L60.93,91.67L64.08,91.67L64.08,95ZM70.73,93.95L67.58,93.95L67.58,90.62L70.73,90.62L70.73,93.95ZM57.42,93.95L54.27,93.95L54.27,90.62L57.42,90.62L57.42,93.95ZM36.18,92.93C31.47,88.22 28.88,81.97 28.88,75.31C28.88,68.66 31.47,62.4 36.18,57.69L38.41,59.92C34.3,64.03 32.04,69.49 32.04,75.31C32.04,81.12 34.3,86.59 38.41,90.7L36.18,92.93ZM88.82,92.93L86.59,90.7C95.07,82.22 95.07,68.41 86.59,59.93L88.82,57.7C93.53,62.41 96.12,68.66 96.12,75.32C96.12,81.97 93.52,88.22 88.82,92.93ZM41.83,87.28C38.63,84.08 36.87,79.83 36.87,75.31C36.87,70.79 38.63,66.54 41.83,63.35L44.06,65.58C41.46,68.18 40.03,71.64 40.03,75.31C40.03,78.99 41.46,82.45 44.06,85.05L41.83,87.28ZM83.17,87.28L80.94,85.05C86.31,79.68 86.31,70.95 80.94,65.58L83.17,63.35C89.76,69.94 89.76,80.68 83.17,87.28ZM64.08,86.82L60.93,86.82L60.93,83.49L64.08,83.49L64.08,86.82ZM70.73,85.77L67.58,85.77L67.58,82.44L70.73,82.44L70.73,85.77ZM57.42,85.77L54.27,85.77L54.27,82.44L57.42,82.44L57.42,85.77ZM64.08,78.64L60.93,78.64L60.93,75.31L64.08,75.31L64.08,78.64ZM70.73,77.59L67.58,77.59L67.58,74.26L70.73,74.26L70.73,77.59ZM57.42,77.59L54.27,77.59L54.27,74.26L57.42,74.26L57.42,77.59ZM64.08,70.46L60.93,70.46L60.93,67.13L64.08,67.13L64.08,70.46ZM70.73,69.41L67.58,69.41L67.58,66.08L70.73,66.08L70.73,69.41ZM57.42,69.41L54.27,69.41L54.27,66.08L57.42,66.08L57.42,69.41ZM64.08,62.28L60.93,62.28L60.93,58.95L64.08,58.95L64.08,62.28ZM70.73,61.23L67.58,61.23L67.58,57.9L70.73,57.9L70.73,61.23ZM57.42,61.23L54.27,61.23L54.27,57.9L57.42,57.9L57.42,61.23Z" />
    </g>
</svg>
