<svg width="100%" height="100%" viewBox="0 0 125 125">
    <g>
        <path d="M62.5,125C28.04,125 0,96.96 0,62.5C0,28.04 28.04,0 62.5,0C96.96,0 125,28.04 125,62.5C125,96.96 96.96,125 62.5,125ZM62.5,1C28.59,1 1,28.59 1,62.5C1,96.41 28.59,124 62.5,124C96.41,124 124,96.41 124,62.5C124,28.59 96.41,1 62.5,1ZM62.5,62.19C58.47,62.19 55.19,58.91 55.19,54.88C55.19,53.04 55.88,51.27 57.13,49.92L59.33,51.96C58.59,52.76 58.19,53.79 58.19,54.88C58.19,57.26 60.12,59.19 62.5,59.19C64.88,59.19 66.81,57.26 66.81,54.88C66.81,53.79 66.4,52.76 65.67,51.96L67.87,49.92C69.12,51.27 69.81,53.03 69.81,54.88C69.81,58.91 66.53,62.19 62.5,62.19ZM64,46.52L61,46.52L61,54.85L64,54.85L64,46.52ZM76.07,104.83L48.93,104.83C41.42,104.83 35.32,98.72 35.32,91.22L35.32,33.79C35.32,26.28 41.43,20.18 48.93,20.18L76.07,20.18C83.58,20.18 89.68,26.29 89.68,33.79L89.68,91.21C89.68,98.72 83.58,104.83 76.07,104.83ZM48.93,23.17C43.08,23.17 38.32,27.93 38.32,33.78L38.32,91.2C38.32,97.05 43.08,101.81 48.93,101.81L76.07,101.81C81.92,101.81 86.68,97.05 86.68,91.2L86.68,33.79C86.68,27.94 81.92,23.18 76.07,23.18L48.93,23.18L48.93,23.17ZM70.53,98.93L54.47,98.93C49.69,98.93 45.8,95.04 45.8,90.26L45.8,74.57C45.8,69.79 49.69,65.9 54.47,65.9L70.53,65.9C75.31,65.9 79.2,69.79 79.2,74.57L79.2,90.26C79.2,95.04 75.31,98.93 70.53,98.93ZM54.47,68.9C51.34,68.9 48.8,71.44 48.8,74.57L48.8,90.26C48.8,93.39 51.34,95.93 54.47,95.93L70.53,95.93C73.66,95.93 76.2,93.39 76.2,90.26L76.2,74.57C76.2,71.44 73.66,68.9 70.53,68.9L54.47,68.9ZM64,35.19L61,35.19L61,38.59L64,38.59L64,35.19ZM66.52,35.07C64.3,32.85 60.7,32.85 58.48,35.07L56.36,32.95C59.75,29.56 65.26,29.56 68.64,32.95L66.52,35.07ZM69.17,31.82C67.39,30.04 65.02,29.06 62.5,29.06C59.98,29.06 57.61,30.04 55.83,31.82L53.71,29.7C56.06,27.35 59.18,26.06 62.5,26.06C65.82,26.06 68.94,27.35 71.29,29.7L69.17,31.82ZM57.03,76.09L54.03,76.09L54.03,82.47L57.03,82.47L57.03,76.09ZM70.97,76.09L67.97,76.09L67.97,82.47L70.97,82.47L70.97,76.09ZM67.13,93.1L57.88,93.1C57.05,93.1 56.38,92.43 56.38,91.6C56.38,88.22 59.13,85.47 62.51,85.47C65.89,85.47 68.64,88.22 68.64,91.6C68.63,92.43 67.95,93.1 67.13,93.1ZM59.76,90.1L65.24,90.1C64.71,89.13 63.68,88.47 62.5,88.47C61.32,88.47 60.29,89.13 59.76,90.1Z" />
    </g>
</svg>
