<svg width="100%" height="100%" viewBox="0 0 125 125">
    <g>
        <path d="M62.5,125C28.04,125 0,96.96 0,62.5C0,28.04 28.04,0 62.5,0C96.96,0 125,28.04 125,62.5C125,96.96 96.96,125 62.5,125ZM62.5,1C28.59,1 1,28.59 1,62.5C1,96.41 28.59,124 62.5,124C96.41,124 124,96.41 124,62.5C124,28.59 96.41,1 62.5,1ZM62.5,101.56C41.93,101.56 25.19,84.82 25.19,64.25C25.19,44.18 41.12,27.76 61,26.97L61,23.43L64,23.43L64,26.97C83.88,27.76 99.81,44.18 99.81,64.25C99.81,84.83 83.07,101.56 62.5,101.56ZM62.5,29.95C43.58,29.95 28.19,45.34 28.19,64.26C28.19,83.18 43.58,98.57 62.5,98.57C81.42,98.57 96.81,83.18 96.81,64.26C96.81,45.34 81.42,29.95 62.5,29.95ZM62.5,91.62C47.41,91.62 35.13,79.34 35.13,64.25C35.13,49.16 47.41,36.88 62.5,36.88C77.59,36.88 89.87,49.16 89.87,64.25C89.87,79.34 77.59,91.62 62.5,91.62ZM62.5,39.88C49.06,39.88 38.13,50.81 38.13,64.25C38.13,77.69 49.06,88.62 62.5,88.62C75.94,88.62 86.87,77.69 86.87,64.25C86.87,50.82 75.94,39.88 62.5,39.88ZM63.98,84.56L61.02,84.56L61.02,81.56L63.98,81.56L63.98,84.56ZM63.92,74.48L60.92,74.48L60.92,72.04L55.6,72.04L55.6,69.04L60.92,69.04L60.92,65.3L57.41,65.3L57.41,62.3L60.92,62.3L60.92,55.98C58.6,55.32 56.9,53.19 56.9,50.66C56.9,47.61 59.38,45.14 62.42,45.14C65.47,45.14 67.94,47.62 67.94,50.66C67.94,53.19 66.24,55.32 63.92,55.98L63.92,74.48ZM62.42,48.14C61.03,48.14 59.9,49.27 59.9,50.66C59.9,52.05 61.03,53.18 62.42,53.18C63.81,53.18 64.94,52.05 64.94,50.66C64.94,49.27 63.82,48.14 62.42,48.14ZM73.93,73.7L73.93,70.7L76.89,70.7L76.89,73.7L73.93,73.7ZM46.71,73.7L46.71,70.7L49.67,70.7L49.67,73.7L46.71,73.7ZM73.93,67.88L73.93,64.88L76.89,64.88L76.89,67.88L73.93,67.88ZM46.71,67.88L46.71,64.88L49.67,64.88L49.67,67.88L46.71,67.88ZM73.93,62.06L73.93,59.06L76.89,59.06L76.89,62.06L73.93,62.06ZM46.71,62.06L46.71,59.06L49.67,59.06L49.67,62.06L46.71,62.06Z" />
    </g>
</svg>
