<svg width="100%" height="100%" viewBox="0 0 125 125">
    <g>
        <path d="M62.5,125C28.04,125 0,96.96 0,62.5C0,28.04 28.04,0 62.5,0C96.96,0 125,28.04 125,62.5C125,96.96 96.96,125 62.5,125ZM62.5,1C28.59,1 1,28.59 1,62.5C1,96.41 28.59,124 62.5,124C96.41,124 124,96.41 124,62.5C124,28.59 96.41,1 62.5,1ZM62.44,109.38C58.1,109.38 55.36,107.46 54.6,103.94L53.65,103.94C52.7,103.94 51.9,103.22 51.81,102.27L50.6,89.38C50.36,85.86 49.5,84.54 46.21,81.27C39.33,76.11 35.22,67.75 35.22,58.88C35.22,43.74 47.43,31.43 62.44,31.43C77.45,31.43 89.66,43.75 89.66,58.88C89.66,67.77 85.54,76.14 78.64,81.3C75.37,84.56 74.52,85.86 74.28,89.34L73.06,102.26C72.97,103.22 72.18,103.94 71.22,103.94L70.27,103.94C69.52,107.46 66.77,109.38 62.44,109.38ZM57.71,103.94C58.17,105.24 59.34,106.38 62.44,106.38C65.55,106.38 66.71,105.24 67.17,103.94L57.71,103.94ZM70.07,101.98L70.07,101.98ZM54.7,100.94L70.18,100.94L70.52,97.3L54.35,97.3L54.7,100.94ZM54.07,94.3L70.8,94.3L71.14,90.71L53.74,90.71L54.07,94.3ZM53.44,87.71L71.43,87.71C71.95,84.08 73.51,82.17 76.6,79.1L76.87,78.88C82.91,74.35 86.66,66.7 86.66,58.89C86.66,45.41 75.79,34.44 62.44,34.44C49.09,34.44 38.22,45.41 38.22,58.89C38.22,66.73 42,74.41 48.08,78.93L48.24,79.07C51.34,82.14 52.91,84.06 53.44,87.71ZM95.16,86.5L87.72,80.64L89.58,78.28L97.02,84.14L95.16,86.5ZM29.84,86.5L27.98,84.14L35.42,78.28L37.28,80.64L29.84,86.5ZM64,83.92L61,83.92L61,49.44C59.25,48.82 58,47.14 58,45.17C58,42.67 60.02,40.64 62.5,40.64C64.98,40.64 67,42.67 67,45.17C67,47.14 65.75,48.82 64,49.44L64,83.92ZM62.5,43.64C61.67,43.64 61,44.33 61,45.17C61,46.01 61.67,46.7 62.5,46.7C63.33,46.7 64,46.01 64,45.17C64,44.33 63.33,43.64 62.5,43.64ZM69.47,79.06L66.47,79.06L66.47,72.04L70.66,67.81C70.34,67.19 70.15,66.48 70.15,65.73C70.15,63.23 72.17,61.2 74.65,61.2C77.13,61.2 79.15,63.23 79.15,65.73C79.15,68.23 77.13,70.26 74.65,70.26C74,70.26 73.39,70.12 72.83,69.88L69.45,73.29L69.45,79.06L69.47,79.06ZM74.66,64.19C73.83,64.19 73.16,64.88 73.16,65.72C73.16,66.56 73.83,67.25 74.66,67.25C75.49,67.25 76.16,66.56 76.16,65.72C76.16,64.87 75.49,64.19 74.66,64.19ZM58.53,79.06L55.53,79.06L55.53,73.27L52.16,69.86C51.6,70.11 50.99,70.24 50.34,70.24C47.86,70.24 45.84,68.21 45.84,65.71C45.84,63.21 47.86,61.18 50.34,61.18C52.82,61.18 54.84,63.21 54.84,65.71C54.84,66.46 54.66,67.17 54.33,67.79L58.52,72.02L58.52,79.06L58.53,79.06ZM50.34,64.19C49.51,64.19 48.84,64.88 48.84,65.72C48.84,66.56 49.51,67.25 50.34,67.25C51.17,67.25 51.84,66.56 51.84,65.72C51.84,64.87 51.17,64.19 50.34,64.19ZM104.74,64.83L95.36,63.84L95.68,60.86L105.06,61.85L104.74,64.83ZM20.26,64.83L19.94,61.85L29.32,60.86L29.64,63.84L20.26,64.83ZM58.53,62.63L55.53,62.63L55.53,58.96L52.15,55.55C51.59,55.8 50.98,55.94 50.33,55.94C47.85,55.94 45.83,53.91 45.83,51.41C45.83,48.91 47.85,46.88 50.33,46.88C52.81,46.88 54.83,48.91 54.83,51.41C54.83,52.16 54.65,52.87 54.32,53.49L58.51,57.72L58.51,62.63L58.53,62.63ZM50.34,49.87C49.51,49.87 48.84,50.56 48.84,51.4C48.84,52.24 49.51,52.93 50.34,52.93C51.17,52.93 51.84,52.24 51.84,51.4C51.84,50.56 51.17,49.87 50.34,49.87ZM69.47,62.63L66.47,62.63L66.47,57.72L70.66,53.49C70.34,52.86 70.15,52.16 70.15,51.4C70.15,48.9 72.17,46.87 74.65,46.87C77.13,46.87 79.15,48.9 79.15,51.4C79.15,53.9 77.13,55.93 74.65,55.93C74,55.93 73.39,55.79 72.83,55.55L69.45,58.96L69.45,62.63L69.47,62.63ZM74.66,49.87C73.83,49.87 73.16,50.56 73.16,51.4C73.16,52.24 73.83,52.93 74.66,52.93C75.49,52.93 76.16,52.24 76.16,51.4C76.16,50.56 75.49,49.87 74.66,49.87ZM92.99,45.51L91.67,42.82L100.15,38.65L101.47,41.34L92.99,45.51ZM32.01,45.51L23.53,41.34L24.85,38.65L33.33,42.82L32.01,45.51ZM43.64,31.24L38.64,23.17L41.19,21.59L46.19,29.66L43.64,31.24ZM81.37,31.24L78.82,29.66L83.82,21.59L86.37,23.17L81.37,31.24ZM64,25.36L61,25.36L61,15.84L64,15.84L64,25.36Z" />
    </g>
</svg>
