<svg width="100%" height="100%" viewBox="0 0 125 125">
    <g>
        <path d="M62.5,125C28.04,125 0,96.96 0,62.5C0,28.04 28.04,0 62.5,0C96.96,0 125,28.04 125,62.5C125,96.96 96.96,125 62.5,125ZM62.5,1C28.59,1 1,28.59 1,62.5C1,96.41 28.59,124 62.5,124C96.41,124 124,96.41 124,62.5C124,28.59 96.41,1 62.5,1ZM76.18,95.89L28.87,95.89L28.87,73.12L29.92,73.65L76.63,73.65L76.63,96C76.5,95.93 76.35,95.89 76.18,95.89M97.76,87.77L78.77,95.38L78.77,73.65L82.65,73.65L96.6,45.17L102.88,63.49L97.76,63.49L97.76,87.77ZM67.43,34.58C68.47,32.49 70.26,30.94 72.47,30.2C73.38,29.9 74.31,29.75 75.25,29.75C76.58,29.75 77.91,30.06 79.14,30.67C83.11,32.65 84.9,37.26 83.48,41.34L67,41.34C66.26,39.19 66.34,36.77 67.43,34.58M28.47,59.46L40.56,59.46C41.15,59.46 41.62,58.98 41.62,58.39C41.62,57.8 41.14,57.33 40.56,57.33L29.51,57.33L36.31,43.46L50.45,43.46L44.55,56.1C44.3,56.63 44.53,57.27 45.06,57.52C45.21,57.59 45.36,57.62 45.51,57.62C45.91,57.62 46.29,57.39 46.48,57.01L52.81,43.47L73.56,43.47L72.09,46.62L71.64,47.59L71.19,48.55L67.66,56.1C67.41,56.63 67.64,57.27 68.17,57.52C68.32,57.59 68.47,57.62 68.62,57.62C69.02,57.62 69.4,57.39 69.58,57.01L73.25,49.16L73.72,48.16L74.2,47.14L75.92,43.47L95.07,43.47L91.49,50.77L88.03,57.84C87.88,57.6 87.63,57.42 87.33,57.36C87.26,57.35 87.2,57.34 87.13,57.34L72.32,57.34C71.73,57.34 71.26,57.82 71.26,58.4C71.26,58.99 71.74,59.47 72.32,59.47L87.13,59.47C87.17,59.47 87.2,59.46 87.24,59.46L81.32,71.53L62.53,71.53L67.94,59.94C68.19,59.41 67.96,58.77 67.43,58.52C66.9,58.27 66.26,58.5 66.01,59.03L60.18,71.52L39.41,71.52L44.82,59.93C45.07,59.4 44.84,58.76 44.31,58.51C43.78,58.26 43.14,58.49 42.9,59.02L37.06,71.51L22.55,71.51L28.47,59.46ZM97.93,42.47L98.49,41.33L85.72,41.33C87.05,36.44 84.8,31.11 80.09,28.76C74.73,26.09 68.2,28.27 65.52,33.63C64.28,36.11 64.09,38.85 64.77,41.33L34.98,41.33L19.14,73.65L26.74,73.65L26.74,98.02L76.19,98.02C76.35,98.02 76.51,97.98 76.65,97.91L76.65,98.52L99.9,89.2L99.9,65.63L105.87,65.63L97.93,42.47ZM84.48,28.98C84.78,28.98 85.07,28.86 85.28,28.62L88.58,24.85C88.97,24.41 88.92,23.73 88.48,23.35C88.04,22.96 87.37,23.01 86.98,23.45L83.68,27.22C83.29,27.66 83.34,28.34 83.78,28.72C83.98,28.89 84.23,28.98 84.48,28.98M63.98,30.01C64.18,30.19 64.43,30.28 64.68,30.28C64.98,30.28 65.27,30.16 65.48,29.92C65.87,29.48 65.82,28.81 65.38,28.42L61.62,25.11C61.18,24.72 60.51,24.76 60.12,25.21C59.73,25.65 59.78,26.32 60.22,26.71L63.98,30.01ZM56.18,40.16L56.21,40.16L61.23,40C61.82,39.98 62.28,39.49 62.26,38.9C62.24,38.31 61.74,37.86 61.16,37.87L56.15,38.03C55.56,38.05 55.1,38.54 55.12,39.13C55.14,39.71 55.61,40.16 56.18,40.16M88.21,38.08C88.23,38.66 88.7,39.11 89.27,39.11L89.31,39.11L94.32,38.95C94.91,38.93 95.37,38.44 95.35,37.85C95.33,37.26 94.83,36.79 94.25,36.82L89.24,36.98C88.65,37 88.19,37.49 88.21,38.08M72.73,24.63C72.79,25.18 73.25,25.59 73.79,25.59C73.83,25.59 73.86,25.59 73.9,25.58C74.48,25.52 74.91,25 74.85,24.41L74.34,19.42C74.28,18.84 73.76,18.41 73.17,18.47C72.59,18.53 72.16,19.05 72.22,19.64L72.73,24.63ZM48.79,59.46L63.6,59.46C64.19,59.46 64.66,58.98 64.66,58.4C64.66,57.81 64.18,57.33 63.6,57.33L48.79,57.33C48.2,57.33 47.73,57.81 47.73,58.4C47.73,58.98 48.2,59.46 48.79,59.46" />
    </g>
</svg>
