<svg width="100%" height="100%" viewBox="0 0 125 125">
    <g>
        <path d="M62.5,125C28.04,125 0,96.96 0,62.5C0,28.04 28.04,0 62.5,0C96.96,0 125,28.04 125,62.5C125,96.96 96.96,125 62.5,125ZM62.5,1C28.59,1 1,28.59 1,62.5C1,96.41 28.59,124 62.5,124C96.41,124 124,96.41 124,62.5C124,28.59 96.41,1 62.5,1ZM68.5,70.08L31.82,70.08C30.99,70.08 30.32,69.41 30.32,68.58L30.32,39.94C30.32,39.11 30.99,38.44 31.82,38.44L68.5,38.44C69.33,38.44 70,39.11 70,39.94L70,68.58C70,69.4 69.33,70.08 68.5,70.08ZM33.32,67.08L67,67.08L67,41.44L33.32,41.44L33.32,67.08ZM78.54,59.42C78.06,59.42 77.6,59.19 77.32,58.8L72.85,52.6C72.52,52.14 72.47,51.54 72.73,51.04C72.99,50.54 73.5,50.22 74.06,50.22L82.99,50.22C83.55,50.22 84.07,50.54 84.32,51.04C84.57,51.54 84.53,52.14 84.2,52.6L79.73,58.8C79.47,59.19 79.02,59.42 78.54,59.42ZM77,53.22L78.54,55.35L80.08,53.22L77,53.22ZM83.01,47.14L74.08,47.14C73.52,47.14 73,46.83 72.75,46.32C72.49,45.82 72.54,45.22 72.87,44.76L77.34,38.56C77.9,37.78 79.21,37.78 79.77,38.56L84.24,44.76C84.57,45.22 84.62,45.82 84.36,46.32C84.1,46.82 83.57,47.14 83.01,47.14ZM77,44.14L80.08,44.14L78.54,42L77,44.14ZM90.57,103.37C85.52,103.37 82.03,100.84 77.67,94.7C75.03,90.98 72.47,88.86 70.78,87.46C69.21,86.15 68.07,85.21 68.37,83.78C68.63,82.49 70.29,80.72 72.52,80.13C73.83,79.78 75.62,80.01 77.44,81.02L74.22,66.47C73.68,64.04 75.23,61.6 77.68,61.02C80.11,60.45 82.56,61.99 83.16,64.46L85.07,73.08C85.51,72.8 86.01,72.6 86.55,72.49C88.23,72.16 89.66,72.6 90.68,73.69C91.56,72.92 92.74,72.55 93.75,72.55C95.47,72.58 96.98,73.52 97.76,74.96C98.48,74.55 99.29,74.35 100.04,74.35L100.05,74.35C102.18,74.36 103.98,75.81 104.43,77.88L106.7,88.1C106.88,88.91 106.37,89.71 105.56,89.89C104.75,90.06 103.95,89.56 103.77,88.75L101.5,78.53C101.35,77.84 100.75,77.36 100.04,77.36C99.99,77.36 98.82,77.37 98.59,78.5C98.45,79.2 97.84,79.7 97.13,79.71L97.11,79.71C96.41,79.71 95.8,79.22 95.65,78.54L95.26,76.8C95.1,76.08 94.46,75.58 93.7,75.56C93.7,75.55 92.26,75.55 92.14,77.07C92.08,77.81 91.49,78.4 90.76,78.45C90.02,78.5 89.35,78.01 89.19,77.29C88.7,75.13 87.68,75.33 87.13,75.44C86.41,75.58 85.89,76.28 85.93,77.06C85.97,77.84 85.41,78.52 84.64,78.63C83.86,78.73 83.14,78.23 82.97,77.47L80.24,65.15C80.04,64.31 79.2,63.76 78.38,63.95C77.51,64.16 76.97,64.98 77.16,65.83L81.39,84.94C81.54,85.63 81.19,86.34 80.54,86.63C79.9,86.92 79.13,86.72 78.71,86.15C76.61,83.27 74.16,82.82 73.3,83.04C72.44,83.27 71.84,83.78 71.53,84.14C71.82,84.42 72.29,84.81 72.71,85.16C74.41,86.57 77.25,88.93 80.12,92.97C85.44,100.46 88.66,101.26 95.05,99.77C95.86,99.58 96.66,100.08 96.85,100.89C97.04,101.7 96.54,102.5 95.73,102.69C93.82,103.13 92.12,103.37 90.57,103.37ZM57.75,78.9C47.65,78.9 37.68,78.28 27.25,77C25.57,76.75 24.29,75.28 24.29,73.65L24.29,34.87C24.29,33.24 25.53,31.77 27.12,31.53C37.63,30.24 47.63,29.61 57.74,29.61C67.85,29.61 77.82,30.23 88.24,31.51C89.92,31.76 91.2,33.23 91.2,34.86L91.2,73.63C91.2,74.23 91.03,74.83 90.71,75.36L88.14,73.81C88.18,73.75 88.2,73.68 88.2,73.64L88.2,34.87C88.2,34.73 88.02,34.51 87.83,34.49C77.58,33.23 67.73,32.62 57.74,32.62C47.76,32.62 37.87,33.24 27.53,34.51C27.47,34.52 27.29,34.72 27.29,34.88L27.29,73.65C27.29,73.79 27.47,74 27.66,74.03C37.92,75.29 47.78,75.9 57.75,75.9C64.49,75.9 71.07,75.62 77.86,75.06L78.11,78.05C71.23,78.62 64.57,78.9 57.75,78.9Z" />
    </g>
</svg>
