<svg width="100%" height="100%" viewBox="0 0 125 125">
    <g>
        <path d="M62.5,125C28.04,125 0,96.96 0,62.5C0,28.04 28.04,0 62.5,0C96.96,0 125,28.04 125,62.5C125,96.96 96.96,125 62.5,125ZM62.5,1C28.59,1 1,28.59 1,62.5C1,96.41 28.59,124 62.5,124C96.41,124 124,96.41 124,62.5C124,28.59 96.41,1 62.5,1ZM64.82,67.92L60.19,67.92L60.19,73.17L64.82,73.17L64.82,67.92ZM56.29,67.74L53.02,64.46C58.25,59.23 66.75,59.23 71.98,64.46L68.71,67.74C65.28,64.32 59.72,64.32 56.29,67.74ZM72.79,62.72C67.12,57.05 57.89,57.05 52.21,62.72L48.94,59.45C56.42,51.97 68.59,51.97 76.07,59.45L72.79,62.72ZM62.5,106.54C38.22,106.54 18.46,86.78 18.46,62.5C18.46,38.22 38.22,18.46 62.5,18.46C86.78,18.46 106.54,38.22 106.54,62.5C106.54,86.78 86.78,106.54 62.5,106.54ZM62.5,21.46C39.87,21.46 21.46,39.87 21.46,62.5C21.46,85.13 39.87,103.54 62.5,103.54C85.13,103.54 103.54,85.13 103.54,62.5C103.54,39.87 85.13,21.46 62.5,21.46ZM87.04,77.9C86.78,77.9 86.52,77.83 86.29,77.7L81.07,74.68L82.57,72.08L86.45,74.32C87.39,72.42 88.1,70.41 88.56,68.34L84.21,67.57L84.73,64.61L89.05,65.37C89.15,64.41 89.21,63.45 89.21,62.48C89.21,61.32 89.14,60.18 88.99,59.06L84.73,59.81L84.21,56.86L88.44,56.11C87.93,54.05 87.19,52.08 86.23,50.24L82.57,52.35L81.07,49.75L84.7,47.65C83.54,45.91 82.18,44.32 80.65,42.9L77.98,46.08L75.68,44.15L78.33,40.99C76.67,39.76 74.86,38.72 72.93,37.9L71.52,41.76L68.7,40.73L70.1,36.88C68.14,36.3 66.09,35.93 63.98,35.81L63.98,39.89L60.98,39.89L60.98,35.81C58.87,35.93 56.81,36.29 54.86,36.88L56.26,40.73L53.44,41.76L52.04,37.9C50.11,38.72 48.3,39.76 46.64,40.99L49.29,44.15L46.99,46.08L44.33,42.91C42.8,44.33 41.44,45.92 40.28,47.66L43.91,49.76L42.41,52.36L38.75,50.25C37.8,52.09 37.05,54.06 36.54,56.12L40.77,56.87L40.25,59.82L36,59.07C35.86,60.19 35.78,61.33 35.78,62.49C35.78,63.46 35.83,64.42 35.94,65.38L40.26,64.62L40.78,67.58L36.43,68.35C36.89,70.42 37.6,72.43 38.54,74.33L42.42,72.09L43.92,74.69L38.7,77.7C38.35,77.9 37.94,77.95 37.56,77.85C37.17,77.75 36.85,77.49 36.65,77.14C34.13,72.7 32.8,67.64 32.8,62.5C32.8,46.12 46.13,32.79 62.51,32.79C78.89,32.79 92.21,46.12 92.21,62.5C92.21,67.64 90.88,72.7 88.35,77.14C88.15,77.49 87.82,77.74 87.44,77.85C87.31,77.89 87.18,77.9 87.04,77.9ZM62.5,100.04C41.8,100.04 24.96,83.2 24.96,62.5C24.96,41.8 41.8,24.96 62.5,24.96C83.2,24.96 100.04,41.8 100.04,62.5C100.04,83.2 83.2,100.04 62.5,100.04ZM62.5,27.96C43.46,27.96 27.96,43.45 27.96,62.5C27.96,81.54 43.45,97.04 62.5,97.04C81.54,97.04 97.04,81.55 97.04,62.5C97.04,43.46 81.54,27.96 62.5,27.96Z" />
    </g>
</svg>
