<svg width="100%" height="100%" viewBox="0 0 125 125">
    <path d="M62.5,125C28.04,125 0,96.96 0,62.5C0,28.04 28.04,0 62.5,0C96.96,0 125,28.04 125,62.5C125,96.96 96.96,125 62.5,125ZM62.5,1C28.59,1 1,28.59 1,62.5C1,96.41 28.59,124 62.5,124C96.41,124 124,96.41 124,62.5C124,28.59 96.41,1 62.5,1ZM88.38,30.69L38.68,30.69C37.99,30.69 37.43,30.13 37.43,29.44C37.43,28.75 37.99,28.19 38.68,28.19L88.38,28.19C89.07,28.19 89.63,28.75 89.63,29.44C89.63,30.13 89.07,30.69 88.38,30.69ZM88.38,103.11L38.68,103.11C37.99,103.11 37.43,102.55 37.43,101.86C37.43,101.17 37.99,100.61 38.68,100.61L88.38,100.61C89.07,100.61 89.63,101.17 89.63,101.86C89.63,102.55 89.07,103.11 88.38,103.11ZM80.72,48.97L65.67,48.97C64.98,48.97 64.42,48.41 64.42,47.72L64.42,38.94C64.42,38.25 64.98,37.69 65.67,37.69L80.72,37.69C81.41,37.69 81.97,38.25 81.97,38.94L81.97,47.72C81.97,48.41 81.41,48.97 80.72,48.97ZM66.92,46.47L79.47,46.47L79.47,40.19L66.92,40.19L66.92,46.47ZM84.43,107.21L42.63,107.21C39.76,107.21 37.43,104.88 37.43,102.01L37.43,29.23C37.43,26.36 39.76,24.03 42.63,24.03L84.43,24.03C87.3,24.03 89.63,26.36 89.63,29.23L89.63,102.01C89.63,104.88 87.29,107.21 84.43,107.21ZM42.63,26.53C41.14,26.53 39.93,27.74 39.93,29.23L39.93,102.01C39.93,103.5 41.14,104.71 42.63,104.71L84.43,104.71C85.92,104.71 87.13,103.5 87.13,102.01L87.13,29.23C87.13,27.74 85.92,26.53 84.43,26.53L42.63,26.53ZM71.08,40.26L68.46,40.26L68.46,42.76L71.08,42.76L71.08,40.26ZM71.08,43.39L68.46,43.39L68.46,45.89L71.08,45.89L71.08,43.39ZM76.56,41.72L73.94,41.72L73.94,44.22L76.56,44.22L76.56,41.72ZM51.93,95.57C51.75,95.57 51.58,95.56 51.4,95.55C47.05,95.26 43.75,91.46 44.04,87.08C44.18,84.97 45.14,83.05 46.73,81.66C48.34,80.26 50.39,79.58 52.51,79.73C54.62,79.88 56.55,80.84 57.94,82.44C59.33,84.04 60.01,86.09 59.86,88.2C59.57,92.37 56.06,95.57 51.93,95.57ZM46.54,87.25C46.34,90.25 48.6,92.86 51.57,93.06C54.56,93.24 57.17,91 57.38,88.03C57.48,86.58 57.02,85.18 56.07,84.09C55.12,82.99 53.8,82.33 52.35,82.23C50.9,82.12 49.49,82.6 48.39,83.56C47.29,84.5 46.63,85.82 46.54,87.25ZM51.94,92.33C51.84,92.33 51.73,92.33 51.63,92.32C49.06,92.15 47.11,89.91 47.28,87.32C47.36,86.08 47.93,84.94 48.87,84.12C49.82,83.29 51.03,82.89 52.28,82.98C54.86,83.17 56.8,85.41 56.62,87.98C56.45,90.43 54.38,92.33 51.94,92.33ZM51.95,85.46C51.42,85.46 50.92,85.65 50.51,86C50.07,86.38 49.81,86.91 49.77,87.48C49.69,88.69 50.59,89.74 51.79,89.82C52.99,89.89 54.04,88.99 54.13,87.8C54.21,86.6 53.31,85.55 52.11,85.47C52.06,85.46 52,85.46 51.95,85.46ZM58.59,88.86L57.19,88.86L57.19,86.36L58.59,86.36L58.59,88.86ZM46.72,88.86L45.28,88.86L45.28,86.36L46.72,86.36L46.72,88.86ZM56.48,84.85L54.71,83.08L55.76,82.03L57.53,83.8L56.48,84.85ZM47.43,84.85L46.38,83.8L48.15,82.03L49.2,83.08L47.43,84.85ZM53.2,82.61L50.7,82.61L50.7,80.98L53.2,80.98L53.2,82.61ZM50.265,84.296L48.744,86.28L51.76,88.591L53.281,86.607L50.265,84.296Z" />
</svg>
